<mxfile host="65bd71144e">
    <diagram name="Side-1" id="P3prjhfwUHkvLFJdore1">
        <mxGraphModel dx="1645" dy="1310" grid="0" gridSize="10" guides="1" tooltips="1" connect="1" arrows="1" fold="1" page="0" pageScale="1" pageWidth="827" pageHeight="1169" math="0" shadow="0">
            <root>
                <mxCell id="0"/>
                <mxCell id="1" parent="0"/>
                <mxCell id="wJ-GAs_ORp4mZZzsxB3k-2" value="" style="verticalLabelPosition=bottom;html=1;verticalAlign=top;align=center;shape=mxgraph.floorplan.office_chair;shadow=0;direction=north;" parent="1" vertex="1">
                    <mxGeometry x="572" y="162" width="43" height="40" as="geometry"/>
                </mxCell>
                <mxCell id="wJ-GAs_ORp4mZZzsxB3k-1" value="" style="verticalLabelPosition=bottom;html=1;verticalAlign=top;align=center;shape=mxgraph.floorplan.office_chair;shadow=0;direction=north;" parent="1" vertex="1">
                    <mxGeometry x="572" y="82" width="43" height="40" as="geometry"/>
                </mxCell>
                <mxCell id="gc1oklfvDwFeD3-8zKts-1" value="" style="verticalLabelPosition=bottom;html=1;verticalAlign=top;align=center;shape=mxgraph.floorplan.wall;fillColor=strokeColor;direction=south;" parent="1" vertex="1">
                    <mxGeometry x="-148" y="190" width="10" height="369" as="geometry"/>
                </mxCell>
                <mxCell id="gc1oklfvDwFeD3-8zKts-2" value="" style="verticalLabelPosition=bottom;html=1;verticalAlign=top;align=center;shape=mxgraph.floorplan.wall;fillColor=strokeColor;" parent="1" vertex="1">
                    <mxGeometry x="-145" y="190" width="345" height="10" as="geometry"/>
                </mxCell>
                <mxCell id="gc1oklfvDwFeD3-8zKts-3" value="" style="verticalLabelPosition=bottom;html=1;verticalAlign=top;align=center;shape=mxgraph.floorplan.wall;fillColor=strokeColor;direction=south;" parent="1" vertex="1">
                    <mxGeometry x="190" y="-90" width="10" height="280" as="geometry"/>
                </mxCell>
                <mxCell id="gc1oklfvDwFeD3-8zKts-4" value="" style="verticalLabelPosition=bottom;html=1;verticalAlign=top;align=center;shape=mxgraph.floorplan.wall;fillColor=strokeColor;" parent="1" vertex="1">
                    <mxGeometry x="190" y="-100" width="810" height="10" as="geometry"/>
                </mxCell>
                <mxCell id="gc1oklfvDwFeD3-8zKts-16" value="" style="shape=rect;shadow=0;html=1;direction=west;" parent="1" vertex="1">
                    <mxGeometry x="70" y="200" width="96" height="60" as="geometry"/>
                </mxCell>
                <mxCell id="gc1oklfvDwFeD3-8zKts-22" value="" style="verticalLabelPosition=bottom;html=1;verticalAlign=top;align=center;shape=mxgraph.floorplan.room;fillColor=#000000;" parent="1" vertex="1">
                    <mxGeometry x="210" y="370" width="80" height="80" as="geometry"/>
                </mxCell>
                <mxCell id="gc1oklfvDwFeD3-8zKts-33" value="" style="shape=rect;shadow=0;html=1;direction=west;" parent="1" vertex="1">
                    <mxGeometry x="390" y="-86" width="120" height="40" as="geometry"/>
                </mxCell>
                <mxCell id="gc1oklfvDwFeD3-8zKts-39" value="" style="group" parent="1" vertex="1" connectable="0">
                    <mxGeometry x="761" y="-76" width="126" height="160" as="geometry"/>
                </mxCell>
                <mxCell id="gc1oklfvDwFeD3-8zKts-7" value="" style="verticalLabelPosition=bottom;html=1;verticalAlign=top;align=center;shape=mxgraph.floorplan.office_chair;shadow=0;direction=south;" parent="gc1oklfvDwFeD3-8zKts-39" vertex="1">
                    <mxGeometry x="83" y="20" width="43" height="40" as="geometry"/>
                </mxCell>
                <mxCell id="gc1oklfvDwFeD3-8zKts-8" value="" style="verticalLabelPosition=bottom;html=1;verticalAlign=top;align=center;shape=mxgraph.floorplan.office_chair;shadow=0;direction=north;" parent="gc1oklfvDwFeD3-8zKts-39" vertex="1">
                    <mxGeometry y="20" width="43" height="40" as="geometry"/>
                </mxCell>
                <mxCell id="gc1oklfvDwFeD3-8zKts-11" value="" style="verticalLabelPosition=bottom;html=1;verticalAlign=top;align=center;shape=mxgraph.floorplan.office_chair;shadow=0;direction=south;" parent="gc1oklfvDwFeD3-8zKts-39" vertex="1">
                    <mxGeometry x="83" y="90" width="43" height="40" as="geometry"/>
                </mxCell>
                <mxCell id="gc1oklfvDwFeD3-8zKts-12" value="" style="verticalLabelPosition=bottom;html=1;verticalAlign=top;align=center;shape=mxgraph.floorplan.office_chair;shadow=0;direction=north;" parent="gc1oklfvDwFeD3-8zKts-39" vertex="1">
                    <mxGeometry y="90" width="43" height="40" as="geometry"/>
                </mxCell>
                <mxCell id="gc1oklfvDwFeD3-8zKts-13" value="" style="shape=rect;shadow=0;html=1;direction=south;" parent="gc1oklfvDwFeD3-8zKts-39" vertex="1">
                    <mxGeometry x="13" width="100" height="160" as="geometry"/>
                </mxCell>
                <mxCell id="gc1oklfvDwFeD3-8zKts-41" value="" style="group" parent="1" vertex="1" connectable="0">
                    <mxGeometry x="589" y="142" width="69" height="220" as="geometry"/>
                </mxCell>
                <mxCell id="gc1oklfvDwFeD3-8zKts-42" value="" style="verticalLabelPosition=bottom;html=1;verticalAlign=top;align=center;shape=mxgraph.floorplan.office_chair;shadow=0;direction=south" parent="gc1oklfvDwFeD3-8zKts-41" vertex="1">
                    <mxGeometry x="26" y="20" width="43" height="40" as="geometry"/>
                </mxCell>
                <mxCell id="gc1oklfvDwFeD3-8zKts-43" value="" style="verticalLabelPosition=bottom;html=1;verticalAlign=top;align=center;shape=mxgraph.floorplan.office_chair;shadow=0;direction=south" parent="gc1oklfvDwFeD3-8zKts-41" vertex="1">
                    <mxGeometry x="26" y="90" width="43" height="40" as="geometry"/>
                </mxCell>
                <mxCell id="gc1oklfvDwFeD3-8zKts-44" value="" style="verticalLabelPosition=bottom;html=1;verticalAlign=top;align=center;shape=mxgraph.floorplan.office_chair;shadow=0;direction=south" parent="gc1oklfvDwFeD3-8zKts-41" vertex="1">
                    <mxGeometry x="26" y="160" width="43" height="40" as="geometry"/>
                </mxCell>
                <mxCell id="gc1oklfvDwFeD3-8zKts-45" value="" style="shape=rect;shadow=0;html=1;direction=south;" parent="gc1oklfvDwFeD3-8zKts-41" vertex="1">
                    <mxGeometry width="55" height="220" as="geometry"/>
                </mxCell>
                <mxCell id="gc1oklfvDwFeD3-8zKts-46" value="" style="group" parent="1" vertex="1" connectable="0">
                    <mxGeometry x="299" y="371" width="216" height="69" as="geometry"/>
                </mxCell>
                <mxCell id="gc1oklfvDwFeD3-8zKts-23" value="" style="rounded=0;whiteSpace=wrap;html=1;" parent="gc1oklfvDwFeD3-8zKts-46" vertex="1">
                    <mxGeometry width="216" height="69" as="geometry"/>
                </mxCell>
                <mxCell id="gc1oklfvDwFeD3-8zKts-24" value="" style="endArrow=none;html=1;rounded=0;exitX=0;exitY=0.5;exitDx=0;exitDy=0;entryX=1;entryY=0.5;entryDx=0;entryDy=0;" parent="gc1oklfvDwFeD3-8zKts-46" source="gc1oklfvDwFeD3-8zKts-23" target="gc1oklfvDwFeD3-8zKts-23" edge="1">
                    <mxGeometry width="50" height="50" relative="1" as="geometry">
                        <mxPoint x="170" as="sourcePoint"/>
                        <mxPoint x="220" y="-53.07692307692308" as="targetPoint"/>
                    </mxGeometry>
                </mxCell>
                <mxCell id="gc1oklfvDwFeD3-8zKts-47" value="" style="group" parent="1" vertex="1" connectable="0">
                    <mxGeometry x="200" y="94" width="114.5" height="56" as="geometry"/>
                </mxCell>
                <mxCell id="gc1oklfvDwFeD3-8zKts-37" value="" style="verticalLabelPosition=bottom;html=1;verticalAlign=top;align=center;shape=mxgraph.floorplan.doorRight;aspect=fixed;direction=north;flipV=1;" parent="gc1oklfvDwFeD3-8zKts-47" vertex="1">
                    <mxGeometry x="55" width="59.5" height="56" as="geometry"/>
                </mxCell>
                <mxCell id="gc1oklfvDwFeD3-8zKts-38" value="" style="whiteSpace=wrap;html=1;" parent="gc1oklfvDwFeD3-8zKts-47" vertex="1">
                    <mxGeometry width="55" height="56" as="geometry"/>
                </mxCell>
                <mxCell id="gc1oklfvDwFeD3-8zKts-48" value="" style="group" parent="1" vertex="1" connectable="0">
                    <mxGeometry x="200" y="-20" width="113.44" height="110" as="geometry"/>
                </mxCell>
                <mxCell id="gc1oklfvDwFeD3-8zKts-15" value="" style="verticalLabelPosition=bottom;html=1;verticalAlign=top;align=center;shape=mxgraph.floorplan.doorDouble;direction=north;aspect=fixed;" parent="gc1oklfvDwFeD3-8zKts-48" vertex="1">
                    <mxGeometry x="55" width="58.44" height="110" as="geometry"/>
                </mxCell>
                <mxCell id="gc1oklfvDwFeD3-8zKts-51" value="" style="group" parent="gc1oklfvDwFeD3-8zKts-48" vertex="1" connectable="0">
                    <mxGeometry width="88" height="110" as="geometry"/>
                </mxCell>
                <mxCell id="gc1oklfvDwFeD3-8zKts-17" value="" style="rounded=0;whiteSpace=wrap;html=1;direction=south;" parent="gc1oklfvDwFeD3-8zKts-51" vertex="1">
                    <mxGeometry width="60" height="110" as="geometry"/>
                </mxCell>
                <mxCell id="gc1oklfvDwFeD3-8zKts-50" value="" style="endArrow=none;html=1;rounded=0;entryX=0.499;entryY=-0.036;entryDx=0;entryDy=0;entryPerimeter=0;exitX=0.5;exitY=1;exitDx=0;exitDy=0;" parent="gc1oklfvDwFeD3-8zKts-51" source="gc1oklfvDwFeD3-8zKts-17" target="gc1oklfvDwFeD3-8zKts-17" edge="1">
                    <mxGeometry width="50" height="50" relative="1" as="geometry">
                        <mxPoint x="80" y="130" as="sourcePoint"/>
                        <mxPoint x="130" y="80" as="targetPoint"/>
                    </mxGeometry>
                </mxCell>
                <mxCell id="gc1oklfvDwFeD3-8zKts-49" value="" style="group" parent="1" vertex="1" connectable="0">
                    <mxGeometry x="200" y="-80" width="114.5" height="56" as="geometry"/>
                </mxCell>
                <mxCell id="gc1oklfvDwFeD3-8zKts-35" value="" style="verticalLabelPosition=bottom;html=1;verticalAlign=top;align=center;shape=mxgraph.floorplan.doorRight;aspect=fixed;direction=north;" parent="gc1oklfvDwFeD3-8zKts-49" vertex="1">
                    <mxGeometry x="55" width="59.5" height="56" as="geometry"/>
                </mxCell>
                <mxCell id="gc1oklfvDwFeD3-8zKts-36" value="" style="whiteSpace=wrap;html=1;" parent="gc1oklfvDwFeD3-8zKts-49" vertex="1">
                    <mxGeometry width="55" height="56" as="geometry"/>
                </mxCell>
                <mxCell id="gc1oklfvDwFeD3-8zKts-54" value="" style="rounded=0;whiteSpace=wrap;html=1;strokeWidth=2;fillWeight=4;hachureGap=8;hachureAngle=45;fillColor=#647687;sketch=1;fontColor=#ffffff;strokeColor=#314354;" parent="1" vertex="1">
                    <mxGeometry x="302" y="252" width="210" height="110" as="geometry"/>
                </mxCell>
                <mxCell id="gc1oklfvDwFeD3-8zKts-55" value="" style="shape=ext;double=1;rounded=1;whiteSpace=wrap;html=1;" parent="1" vertex="1">
                    <mxGeometry x="522" y="385.5" width="50" height="40" as="geometry"/>
                </mxCell>
                <mxCell id="1jkrQc-gWC2C8GfhcnoL-1" value="" style="group" parent="1" vertex="1" connectable="0">
                    <mxGeometry x="761" y="84" width="126" height="160" as="geometry"/>
                </mxCell>
                <mxCell id="1jkrQc-gWC2C8GfhcnoL-2" value="" style="verticalLabelPosition=bottom;html=1;verticalAlign=top;align=center;shape=mxgraph.floorplan.office_chair;shadow=0;direction=south;" parent="1jkrQc-gWC2C8GfhcnoL-1" vertex="1">
                    <mxGeometry x="83" y="20" width="43" height="40" as="geometry"/>
                </mxCell>
                <mxCell id="1jkrQc-gWC2C8GfhcnoL-3" value="" style="verticalLabelPosition=bottom;html=1;verticalAlign=top;align=center;shape=mxgraph.floorplan.office_chair;shadow=0;direction=north;" parent="1jkrQc-gWC2C8GfhcnoL-1" vertex="1">
                    <mxGeometry y="20" width="43" height="40" as="geometry"/>
                </mxCell>
                <mxCell id="1jkrQc-gWC2C8GfhcnoL-4" value="" style="verticalLabelPosition=bottom;html=1;verticalAlign=top;align=center;shape=mxgraph.floorplan.office_chair;shadow=0;direction=south;" parent="1jkrQc-gWC2C8GfhcnoL-1" vertex="1">
                    <mxGeometry x="83" y="90" width="43" height="40" as="geometry"/>
                </mxCell>
                <mxCell id="1jkrQc-gWC2C8GfhcnoL-5" value="" style="verticalLabelPosition=bottom;html=1;verticalAlign=top;align=center;shape=mxgraph.floorplan.office_chair;shadow=0;direction=north;" parent="1jkrQc-gWC2C8GfhcnoL-1" vertex="1">
                    <mxGeometry y="90" width="43" height="40" as="geometry"/>
                </mxCell>
                <mxCell id="1jkrQc-gWC2C8GfhcnoL-6" value="" style="shape=rect;shadow=0;html=1;direction=south;" parent="1jkrQc-gWC2C8GfhcnoL-1" vertex="1">
                    <mxGeometry x="13" width="100" height="160" as="geometry"/>
                </mxCell>
                <mxCell id="1jkrQc-gWC2C8GfhcnoL-13" value="" style="verticalLabelPosition=bottom;html=1;verticalAlign=top;align=center;shape=mxgraph.floorplan.room;fillColor=#000000;" parent="1" vertex="1">
                    <mxGeometry x="862" y="370" width="80" height="80" as="geometry"/>
                </mxCell>
                <mxCell id="1jkrQc-gWC2C8GfhcnoL-26" value="Ståmåtte" style="text;html=1;align=left;verticalAlign=middle;whiteSpace=wrap;rounded=1;fillColor=default;gradientColor=none;strokeColor=none;fontSize=16;fontFamily=lmodern;" parent="1" vertex="1">
                    <mxGeometry x="356" y="184" width="83" height="18" as="geometry"/>
                </mxCell>
                <mxCell id="1jkrQc-gWC2C8GfhcnoL-27" value="Køleskabe" style="text;html=1;align=left;verticalAlign=middle;whiteSpace=wrap;rounded=1;fillColor=default;gradientColor=none;strokeColor=none;fontSize=16;fontFamily=lmodern;" parent="1" vertex="1">
                    <mxGeometry x="70" y="-82" width="83" height="18" as="geometry"/>
                </mxCell>
                <mxCell id="1jkrQc-gWC2C8GfhcnoL-25" value="Bar" style="text;html=1;align=left;verticalAlign=middle;whiteSpace=wrap;rounded=1;fillColor=default;gradientColor=none;strokeColor=none;fontSize=16;fontFamily=lmodern;" parent="1" vertex="1">
                    <mxGeometry x="329" y="484" width="83" height="18" as="geometry"/>
                </mxCell>
                <mxCell id="1jkrQc-gWC2C8GfhcnoL-28" value="" style="endArrow=classic;html=1;rounded=0;exitX=0.25;exitY=0;exitDx=0;exitDy=0;" parent="1" edge="1">
                    <mxGeometry width="50" height="50" relative="1" as="geometry">
                        <mxPoint x="348.0000000000002" y="486" as="sourcePoint"/>
                        <mxPoint x="373.25" y="442" as="targetPoint"/>
                    </mxGeometry>
                </mxCell>
                <mxCell id="1jkrQc-gWC2C8GfhcnoL-31" value="" style="endArrow=classic;html=1;rounded=0;exitX=0.25;exitY=1;exitDx=0;exitDy=0;" parent="1" source="1jkrQc-gWC2C8GfhcnoL-26" edge="1">
                    <mxGeometry width="50" height="50" relative="1" as="geometry">
                        <mxPoint x="454" y="247" as="sourcePoint"/>
                        <mxPoint x="377" y="248" as="targetPoint"/>
                    </mxGeometry>
                </mxCell>
                <mxCell id="1jkrQc-gWC2C8GfhcnoL-33" value="" style="endArrow=classic;html=1;rounded=0;exitX=0.5;exitY=1;exitDx=0;exitDy=0;" parent="1" source="1jkrQc-gWC2C8GfhcnoL-27" edge="1">
                    <mxGeometry width="50" height="50" relative="1" as="geometry">
                        <mxPoint x="388" y="246" as="sourcePoint"/>
                        <mxPoint x="227" y="32" as="targetPoint"/>
                    </mxGeometry>
                </mxCell>
                <mxCell id="1jkrQc-gWC2C8GfhcnoL-37" value="Skraldespand" style="text;html=1;align=left;verticalAlign=middle;whiteSpace=wrap;rounded=1;fillColor=default;gradientColor=none;strokeColor=none;fontSize=16;fontFamily=lmodern;" parent="1" vertex="1">
                    <mxGeometry x="541.75" y="461" width="83" height="18" as="geometry"/>
                </mxCell>
                <mxCell id="1jkrQc-gWC2C8GfhcnoL-38" value="" style="endArrow=classic;html=1;rounded=0;exitX=0.25;exitY=0;exitDx=0;exitDy=0;" parent="1" source="1jkrQc-gWC2C8GfhcnoL-37" target="gc1oklfvDwFeD3-8zKts-55" edge="1">
                    <mxGeometry width="50" height="50" relative="1" as="geometry">
                        <mxPoint x="916" y="781" as="sourcePoint"/>
                        <mxPoint x="593" y="399" as="targetPoint"/>
                    </mxGeometry>
                </mxCell>
                <mxCell id="1jkrQc-gWC2C8GfhcnoL-39" value="Shotsbord" style="text;html=1;align=left;verticalAlign=middle;whiteSpace=wrap;rounded=1;fillColor=default;gradientColor=none;strokeColor=none;fontSize=16;fontFamily=lmodern;" parent="1" vertex="1">
                    <mxGeometry x="43" y="124" width="83" height="18" as="geometry"/>
                </mxCell>
                <mxCell id="1jkrQc-gWC2C8GfhcnoL-40" value="" style="endArrow=classic;html=1;rounded=0;exitX=0.5;exitY=1;exitDx=0;exitDy=0;" parent="1" source="1jkrQc-gWC2C8GfhcnoL-39" edge="1">
                    <mxGeometry width="50" height="50" relative="1" as="geometry">
                        <mxPoint x="361" y="441" as="sourcePoint"/>
                        <mxPoint x="115" y="220" as="targetPoint"/>
                    </mxGeometry>
                </mxCell>
                <mxCell id="1jkrQc-gWC2C8GfhcnoL-41" value="" style="shape=trapezoid;perimeter=trapezoidPerimeter;whiteSpace=wrap;html=1;fixedSize=1;direction=south;size=9;rounded=1;" parent="1" vertex="1">
                    <mxGeometry x="-57" y="297" width="106" height="74" as="geometry"/>
                </mxCell>
                <mxCell id="1jkrQc-gWC2C8GfhcnoL-45" value="Chips" style="text;html=1;align=left;verticalAlign=middle;whiteSpace=wrap;rounded=1;fillColor=default;gradientColor=none;strokeColor=none;fontSize=16;fontFamily=lmodern;" parent="1" vertex="1">
                    <mxGeometry x="93" y="296" width="83" height="18" as="geometry"/>
                </mxCell>
                <mxCell id="1jkrQc-gWC2C8GfhcnoL-46" value="" style="endArrow=classic;html=1;rounded=0;exitX=0;exitY=0.75;exitDx=0;exitDy=0;entryX=0.378;entryY=0.009;entryDx=0;entryDy=0;entryPerimeter=0;" parent="1" source="1jkrQc-gWC2C8GfhcnoL-45" target="1jkrQc-gWC2C8GfhcnoL-41" edge="1">
                    <mxGeometry width="50" height="50" relative="1" as="geometry">
                        <mxPoint x="230" y="559" as="sourcePoint"/>
                        <mxPoint x="-16" y="338" as="targetPoint"/>
                    </mxGeometry>
                </mxCell>
                <mxCell id="1jkrQc-gWC2C8GfhcnoL-47" value="Brætspil" style="text;html=1;align=left;verticalAlign=middle;whiteSpace=wrap;rounded=1;fillColor=default;gradientColor=none;strokeColor=none;fontSize=16;fontFamily=lmodern;" parent="1" vertex="1">
                    <mxGeometry x="112" y="362" width="83" height="18" as="geometry"/>
                </mxCell>
                <mxCell id="1jkrQc-gWC2C8GfhcnoL-48" value="" style="endArrow=classic;html=1;rounded=0;exitX=0;exitY=1;exitDx=0;exitDy=0;" parent="1" source="1jkrQc-gWC2C8GfhcnoL-47" edge="1">
                    <mxGeometry width="50" height="50" relative="1" as="geometry">
                        <mxPoint x="116" y="371" as="sourcePoint"/>
                        <mxPoint x="81" y="403" as="targetPoint"/>
                    </mxGeometry>
                </mxCell>
                <mxCell id="1jkrQc-gWC2C8GfhcnoL-49" value="" style="whiteSpace=wrap;html=1;aspect=fixed;" parent="1" vertex="1">
                    <mxGeometry x="207" y="163" width="58" height="58" as="geometry"/>
                </mxCell>
                <mxCell id="1jkrQc-gWC2C8GfhcnoL-50" value="Opvaskebakke til plastkopper" style="text;html=1;align=left;verticalAlign=middle;whiteSpace=wrap;rounded=1;fillColor=default;gradientColor=none;strokeColor=none;fontSize=16;fontFamily=lmodern;" parent="1" vertex="1">
                    <mxGeometry x="78" y="51" width="110" height="48" as="geometry"/>
                </mxCell>
                <mxCell id="1jkrQc-gWC2C8GfhcnoL-51" value="" style="endArrow=classic;html=1;rounded=0;exitX=0.75;exitY=1;exitDx=0;exitDy=0;" parent="1" source="1jkrQc-gWC2C8GfhcnoL-50" target="1jkrQc-gWC2C8GfhcnoL-49" edge="1">
                    <mxGeometry width="50" height="50" relative="1" as="geometry">
                        <mxPoint x="202" y="134" as="sourcePoint"/>
                        <mxPoint x="154" y="134" as="targetPoint"/>
                    </mxGeometry>
                </mxCell>
                <mxCell id="1jkrQc-gWC2C8GfhcnoL-52" value="" style="endArrow=none;html=1;rounded=0;strokeWidth=2;jumpSize=6;" parent="1" edge="1">
                    <mxGeometry width="50" height="50" relative="1" as="geometry">
                        <mxPoint x="-101" y="229.5" as="sourcePoint"/>
                        <mxPoint x="2" y="229.5" as="targetPoint"/>
                    </mxGeometry>
                </mxCell>
                <mxCell id="1jkrQc-gWC2C8GfhcnoL-53" value="" style="endArrow=none;html=1;rounded=0;strokeWidth=2;jumpSize=6;" parent="1" edge="1">
                    <mxGeometry width="50" height="50" relative="1" as="geometry">
                        <mxPoint x="-101" y="252.5" as="sourcePoint"/>
                        <mxPoint x="-101" y="207.5" as="targetPoint"/>
                    </mxGeometry>
                </mxCell>
                <mxCell id="1jkrQc-gWC2C8GfhcnoL-54" value="" style="endArrow=none;html=1;rounded=0;strokeWidth=2;jumpSize=6;" parent="1" edge="1">
                    <mxGeometry width="50" height="50" relative="1" as="geometry">
                        <mxPoint x="2" y="252.5" as="sourcePoint"/>
                        <mxPoint x="2" y="207.5" as="targetPoint"/>
                    </mxGeometry>
                </mxCell>
                <mxCell id="1jkrQc-gWC2C8GfhcnoL-55" value="" style="endArrow=none;html=1;rounded=0;strokeWidth=2;jumpSize=6;" parent="1" edge="1">
                    <mxGeometry width="50" height="50" relative="1" as="geometry">
                        <mxPoint x="-101" y="214" as="sourcePoint"/>
                        <mxPoint x="3" y="214" as="targetPoint"/>
                    </mxGeometry>
                </mxCell>
                <mxCell id="1jkrQc-gWC2C8GfhcnoL-56" value="" style="endArrow=none;html=1;rounded=0;strokeWidth=2;jumpSize=6;" parent="1" edge="1">
                    <mxGeometry width="50" height="50" relative="1" as="geometry">
                        <mxPoint x="-102" y="245" as="sourcePoint"/>
                        <mxPoint x="2" y="245" as="targetPoint"/>
                    </mxGeometry>
                </mxCell>
                <mxCell id="1jkrQc-gWC2C8GfhcnoL-57" value="Garderobestativ" style="text;html=1;align=left;verticalAlign=middle;whiteSpace=wrap;rounded=1;fillColor=default;gradientColor=none;strokeColor=none;fontSize=16;fontFamily=lmodern;" parent="1" vertex="1">
                    <mxGeometry x="-115" y="124" width="121" height="18" as="geometry"/>
                </mxCell>
                <mxCell id="1jkrQc-gWC2C8GfhcnoL-58" value="" style="endArrow=classic;html=1;rounded=0;exitX=0.5;exitY=1;exitDx=0;exitDy=0;" parent="1" source="1jkrQc-gWC2C8GfhcnoL-57" edge="1">
                    <mxGeometry width="50" height="50" relative="1" as="geometry">
                        <mxPoint x="210" y="442" as="sourcePoint"/>
                        <mxPoint x="-50" y="212" as="targetPoint"/>
                    </mxGeometry>
                </mxCell>
                <mxCell id="1jkrQc-gWC2C8GfhcnoL-59" value="Højborde" style="text;html=1;align=left;verticalAlign=middle;whiteSpace=wrap;rounded=1;fillColor=default;gradientColor=none;strokeColor=none;fontSize=16;fontFamily=lmodern;" parent="1" vertex="1">
                    <mxGeometry x="405" y="-20" width="83" height="18" as="geometry"/>
                </mxCell>
                <mxCell id="1jkrQc-gWC2C8GfhcnoL-60" value="" style="endArrow=classic;html=1;rounded=0;exitX=0.75;exitY=1;exitDx=0;exitDy=0;" parent="1" source="1jkrQc-gWC2C8GfhcnoL-59" edge="1">
                    <mxGeometry width="50" height="50" relative="1" as="geometry">
                        <mxPoint x="724" y="346" as="sourcePoint"/>
                        <mxPoint x="561" y="22" as="targetPoint"/>
                    </mxGeometry>
                </mxCell>
                <mxCell id="WAKzNs12OJYYZ-WBTaYJ-13" value="" style="rounded=0;whiteSpace=wrap;html=1;" parent="1" vertex="1">
                    <mxGeometry x="584" y="371" width="64" height="66" as="geometry"/>
                </mxCell>
                <mxCell id="WAKzNs12OJYYZ-WBTaYJ-18" value="" style="ellipse;whiteSpace=wrap;html=1;aspect=fixed;" parent="1" vertex="1">
                    <mxGeometry x="607.25" y="395.25" width="17.5" height="17.5" as="geometry"/>
                </mxCell>
                <mxCell id="WAKzNs12OJYYZ-WBTaYJ-19" value="" style="rounded=0;whiteSpace=wrap;html=1;" parent="1" vertex="1">
                    <mxGeometry x="-31.95" y="408" width="109.95" height="147" as="geometry"/>
                </mxCell>
                <mxCell id="WAKzNs12OJYYZ-WBTaYJ-21" value="" style="group" parent="1" vertex="1" connectable="0">
                    <mxGeometry x="589" y="-78" width="69" height="220" as="geometry"/>
                </mxCell>
                <mxCell id="WAKzNs12OJYYZ-WBTaYJ-22" value="" style="verticalLabelPosition=bottom;html=1;verticalAlign=top;align=center;shape=mxgraph.floorplan.office_chair;shadow=0;direction=north;" parent="WAKzNs12OJYYZ-WBTaYJ-21" vertex="1">
                    <mxGeometry x="-17" y="90" width="43" height="40" as="geometry"/>
                </mxCell>
                <mxCell id="WAKzNs12OJYYZ-WBTaYJ-23" value="" style="verticalLabelPosition=bottom;html=1;verticalAlign=top;align=center;shape=mxgraph.floorplan.office_chair;shadow=0;direction=south" parent="WAKzNs12OJYYZ-WBTaYJ-21" vertex="1">
                    <mxGeometry x="26" y="20" width="43" height="40" as="geometry"/>
                </mxCell>
                <mxCell id="WAKzNs12OJYYZ-WBTaYJ-24" value="" style="verticalLabelPosition=bottom;html=1;verticalAlign=top;align=center;shape=mxgraph.floorplan.office_chair;shadow=0;direction=south" parent="WAKzNs12OJYYZ-WBTaYJ-21" vertex="1">
                    <mxGeometry x="26" y="90" width="43" height="40" as="geometry"/>
                </mxCell>
                <mxCell id="WAKzNs12OJYYZ-WBTaYJ-25" value="" style="verticalLabelPosition=bottom;html=1;verticalAlign=top;align=center;shape=mxgraph.floorplan.office_chair;shadow=0;direction=south" parent="WAKzNs12OJYYZ-WBTaYJ-21" vertex="1">
                    <mxGeometry x="26" y="160" width="43" height="40" as="geometry"/>
                </mxCell>
                <mxCell id="WAKzNs12OJYYZ-WBTaYJ-27" value="" style="verticalLabelPosition=bottom;html=1;verticalAlign=top;align=center;shape=mxgraph.floorplan.office_chair;shadow=0;direction=north;" parent="WAKzNs12OJYYZ-WBTaYJ-21" vertex="1">
                    <mxGeometry x="-17" y="20" width="43" height="40" as="geometry"/>
                </mxCell>
                <mxCell id="WAKzNs12OJYYZ-WBTaYJ-26" value="" style="shape=rect;shadow=0;html=1;direction=south;" parent="WAKzNs12OJYYZ-WBTaYJ-21" vertex="1">
                    <mxGeometry width="55" height="220" as="geometry"/>
                </mxCell>
                <mxCell id="WAKzNs12OJYYZ-WBTaYJ-29" value="Pantkasse" style="text;html=1;align=left;verticalAlign=middle;whiteSpace=wrap;rounded=1;fillColor=default;gradientColor=none;strokeColor=none;fontSize=16;fontFamily=lmodern;" parent="1" vertex="1">
                    <mxGeometry x="686" y="422" width="83" height="18" as="geometry"/>
                </mxCell>
                <mxCell id="WAKzNs12OJYYZ-WBTaYJ-30" value="" style="endArrow=classic;html=1;rounded=0;entryX=1;entryY=0.75;entryDx=0;entryDy=0;" parent="1" edge="1" target="WAKzNs12OJYYZ-WBTaYJ-13">
                    <mxGeometry width="50" height="50" relative="1" as="geometry">
                        <mxPoint x="683" y="427" as="sourcePoint"/>
                        <mxPoint x="315" y="368" as="targetPoint"/>
                    </mxGeometry>
                </mxCell>
            </root>
        </mxGraphModel>
    </diagram>
</mxfile>